# xmcd
#
# Track frame offsets: 
#        150
#        13355
#        26382
#        39094
#        47214
#        61725
#        72120
#        80530
#        88934
#        103159
#
# Disc length: 1494 seconds
#
# Revision: 0
# Processed by: cddbd v1.5.2PL0 Copyright (c) Steve Scherf et al.
# Submitted via: ExactAudioCopy v0.99pb4
#
DISCID=7b05d40a
DTITLE=Mel Street - That Good Ol' Mountain Dew
DYEAR=2009
DGENRE=Country
TTITLE0=Mountain Dew
TTITLE1=Strange, Empty World
TTITLE2=To See Virginia Again (Virginia's Song)
TTITLE3=Angel With A Broken Wing
TTITLE4=Borrowed Angel
TTITLE5=Today I Started Loving You Again
TTITLE6=Let's Put Out The Fire
TTITLE7=Hide Me From The World
TTITLE8=You Make Me Feel More Like A man
TTITLE9=Body Man
EXTD=
EXTT0=
EXTT1=
EXTT2=
EXTT3=
EXTT4=
EXTT5=
EXTT6=
EXTT7=
EXTT8=
EXTT9=
PLAYORDER=
